<?xml version="1.0" encoding="UTF-8" standalone="no"?>
<!-- Creator: CorelDRAW -->

<svg
   xml:space="preserve"
   width="5.6170006in"
   height="3.9939702in"
   version="1.1"
   style="clip-rule:evenodd;fill-rule:evenodd;image-rendering:optimizeQuality;shape-rendering:geometricPrecision;text-rendering:geometricPrecision"
   viewBox="0 0 5617.0006 3993.9702"
   id="svg46"
   sodipodi:docname="Universitas Amikom Purwokerto Logo - Koleksilogo.com.svg"
   xmlns:inkscape="http://www.inkscape.org/namespaces/inkscape"
   xmlns:sodipodi="http://sodipodi.sourceforge.net/DTD/sodipodi-0.dtd"
   xmlns="http://www.w3.org/2000/svg"
   xmlns:svg="http://www.w3.org/2000/svg"><sodipodi:namedview
   id="namedview46"
   pagecolor="#ffffff"
   bordercolor="#000000"
   borderopacity="0.25"
   inkscape:showpageshadow="2"
   inkscape:pageopacity="0.0"
   inkscape:pagecheckerboard="0"
   inkscape:deskcolor="#d1d1d1"
   inkscape:document-units="in" />
 <defs
   id="defs1"><style
     type="text/css"
     id="style1">
   <![CDATA[
    .fil0 {fill:#660066}
    .fil1 {fill:#770077}
    .fil7 {fill:#822985}
    .fil4 {fill:#FF7600}
    .fil6 {fill:#FF772A}
    .fil5 {fill:#FF9919}
    .fil3 {fill:#FFAC00}
    .fil2 {fill:#FFCC00}
    .fil8 {fill:#770077;fill-rule:nonzero}
   ]]>
  </style></defs>
 <g
   id="Layer_x0020_1"
   inkscape:label="Layer 1"
   inkscape:groupmode="layer"
   transform="translate(-1408,-2941.0298)">
  <metadata
   id="CorelCorpID_0Corel-Layer" />
  <g
   id="Universitas_x0020_Amikom_x0020_Purwokerto_x0020_Logo_x0020__x005b_koleksilogo.com_x005d_.cdr"
   inkscape:export-filename="amikom.svg"
   inkscape:export-xdpi="96"
   inkscape:export-ydpi="96">
   <polygon
   class="fil0"
   points="5225,5096 4848,6126 4805,6126 5092,5100 4852,4997 4880,4912 5167,5004 "
   id="polygon1" />
   <path
   class="fil0"
   d="m 4922,4780 -60,187 259,90 c 29,11 44,53 29,92 l -321,977 77,1 c 43,-1 75,-42 86,-79 l 335,-1038 c 6,-10 9,-56 -8,-76 -13,-16 -38,-29 -68,-41 l -32,-12 z"
   id="path1" />
   <path
   class="fil1"
   d="m 4862,4967 -289,896 c -15,48 -47,67 -99,67 l -746,-5 2,137 c 6,50 46,69 90,68 l 1009,-4 321,-977 c 16,-39 0,-81 -29,-92 z"
   id="path2" />
   <polygon
   class="fil0"
   points="3213,4750 3458,4658 3496,4771 3248,4853 3118,4793 2791,3783 2841,3744 "
   id="polygon2" />
   <polygon
   class="fil0"
   points="4142,5712 4010,5713 2994,5700 2975,5644 4007,5604 4007,5340 4142,5340 "
   id="polygon3" />
   <path
   class="fil1"
   d="m 4069,5340 -917,5 c -50,1 -79,-23 -95,-72 l -240,-722 -119,41 c -46,21 -51,65 -36,107 l 325,981 1012,-6 c 42,2 68,-17 70,-50 z"
   id="path3" />
   <path
   class="fil0"
   d="m 4266,5339 -197,1 v 284 c -2,31 -29,52 -70,50 l -1012,6 24,73 c 15,40 39,62 78,61 l 1092,-5 c 58,-1 86,-34 85,-105 z"
   id="path4" />
   <path
   class="fil2"
   d="m 2817,4551 113,-38 222,679 c 14,48 36,88 91,93 h 984 c 15,14 28,32 39,54 l -1114,6 c -47,1 -77,-17 -95,-72 z"
   id="path5" />
   <path
   class="fil3"
   d="m 3079,4969 c 20,47 54,58 98,50 17,-3 35,-11 57,-18 l 67,204 c 15,45 48,69 105,66 l 797,-1 c 9,3 17,9 24,15 h -984 c -48,-3 -75,-38 -91,-93 z"
   id="path6" />
   <path
   class="fil4"
   d="m 3234,5001 70,-25 102,295 c -54,3 -89,-18 -105,-66 z"
   id="path7" />
   <path
   class="fil2"
   d="m 3728,5925 v -114 l 719,-2 c 49,2 85,-26 105,-77 l 306,-932 c 19,-10 39,-18 64,-20 l -349,1083 c -14,45 -45,69 -105,67 z"
   id="path8" />
   <path
   class="fil3"
   d="m 4190,5810 c 30,-5 53,-18 65,-41 11,-24 12,-59 11,-99 l 216,3 c 47,0 84,-22 100,-77 l 255,-780 c 7,-7 13,-12 21,-16 l -306,932 c -23,68 -73,80 -131,78 z"
   id="path9" />
   <path
   class="fil4"
   d="m 4266,5670 v -78 l 316,4 c -15,51 -50,78 -100,77 z"
   id="path10" />
   <path
   class="fil2"
   d="m 4221,4094 c 293,0 530,237 530,530 0,293 -237,530 -530,530 -293,0 -530,-237 -530,-530 0,-293 237,-530 530,-530 z"
   id="path11" />
   <path
   class="fil5"
   d="m 4221,4209 c 229,0 415,186 415,415 0,229 -186,415 -415,415 -229,0 -415,-186 -415,-415 0,-229 186,-415 415,-415 z"
   id="path12" />
   <path
   class="fil0"
   d="m 4581,3969 153,109 164,-221 c 20,-24 66,-26 97,1 l 822,595 26,-78 c 12,-41 -18,-84 -50,-106 l -877,-634 c -47,-33 -93,-21 -135,37 z"
   id="path13" />
   <polygon
   class="fil0"
   points="5807,4486 4936,3856 4769,4103 4708,4059 4879,3808 4944,3777 5830,4414 "
   id="polygon13" />
   <polygon
   class="fil0"
   points="4535,2981 4586,3020 3780,3666 3896,3927 3855,3958 3703,3741 3708,3610 "
   id="polygon14" />
   <path
   class="fil1"
   d="m 4734,4078 763,548 c 41,29 50,65 34,115 l -225,730 122,35 c 50,10 80,-22 92,-64 l 297,-989 -823,-596 c -32,-27 -78,-24 -97,-1 z"
   id="path14" />
   <path
   class="fil2"
   d="m 5306,5471 -115,-38 220,-684 c 20,-54 2,-107 -45,-142 l -785,-572 c -4,-20 -5,-42 0,-66 l 916,657 c 39,27 54,66 32,121 z"
   id="path15" />
   <path
   class="fil3"
   d="m 5327,5010 c 5,-31 8,-65 -16,-84 -20,-16 -55,-31 -92,-45 l 74,-223 c 14,-45 3,-87 -44,-119 l -659,-478 c -5,-9 -7,-16 -9,-26 l 785,572 c 58,43 63,98 44,152 z"
   id="path16" />
   <path
   class="fil4"
   d="m 5219,4881 -74,-25 99,-321 c 28,17 45,39 52,64 4,19 3,38 -3,59 z"
   id="path17" />
   <path
   class="fil0"
   d="m 3733,4052 151,-115 -153,-211 c -15,-26 -8,-82 27,-108 l 809,-612 -64,-51 c -35,-25 -85,-13 -117,9 l -856,656 c -48,32 -53,80 -14,139 z"
   id="path18" />
   <path
   class="fil1"
   d="m 3884,3937 732,-560 c 39,-31 80,-34 122,-6 l 613,445 65,-94 c 31,-51 18,-94 -35,-129 l -814,-587 -809,612 c -5,4 -10,8 -13,13 -11,14 -17,29 -20,44 -3,17 -2,36 6,51 z"
   id="path19" />
   <path
   class="fil2"
   d="m 5351,3816 -63,88 -560,-404 c -49,-37 -111,-50 -158,-16 l -774,589 c -20,-4 -42,-8 -63,-21 l 891,-680 c 37,-29 81,-29 124,6 z"
   id="path20" />
   <path
   class="fil3"
   d="m 4916,3635 c -71,-40 -110,1 -154,65 l -176,-124 c -3,-2 -6,-4 -10,-6 -6,-3 -13,-6 -20,-8 -30,-9 -62,-1 -90,19 l -643,490 c -9,2 -17,2 -27,2 l 761,-580 c 22,-20 48,-28 73,-29 32,0 64,11 87,28 z"
   id="path21" />
   <path
   class="fil4"
   d="m 4762,3700 -45,66 -252,-183 c 43,-35 91,-31 133,1 z"
   id="path22" />
   <path
   class="fil0"
   d="m 3537,4895 -58,-176 -240,73 c -47,12 -90,-16 -103,-58 l -316,-974 -68,54 c -31,28 -27,69 -17,106 l 338,1031 c 16,59 52,82 121,64 z"
   id="path23" />
   <path
   class="fil1"
   d="m 3479,4719 -298,-899 c -17,-48 -7,-87 33,-118 l 603,-455 -68,-92 c -38,-46 -86,-38 -137,0 l -792,605 316,975 c 8,24 23,41 42,51 15,7 38,13 62,6 z"
   id="path24" />
   <path
   class="fil2"
   d="m 3817,3247 73,97 -560,428 c -49,36 -76,77 -58,132 l 303,936 c -9,18 -20,38 -38,55 L 3181,3820 c -10,-28 -11,-58 2,-83 8,-15 22,-29 39,-41 z"
   id="path25" />
   <path
   class="fil3"
   d="m 3523,3625 c -55,49 -33,98 14,162 l -175,134 c -38,29 -46,69 -31,113 l 251,780 c -1,10 -3,17 -7,26 l -299,-924 c -26,-67 6,-108 48,-140 z"
   id="path26" />
   <path
   class="fil4"
   d="m 3537,3787 44,60 -250,187 c -19,-52 1,-98 46,-124 z"
   id="path27" />
   <path
   class="fil6"
   d="m 4221,4482 c 78,0 142,64 142,142 0,78 -64,142 -142,142 -78,0 -142,-64 -142,-142 0,-78 64,-142 142,-142 z"
   id="path28" />
   <path
   class="fil7"
   d="m 1997,3669 169,104 c 29,21 46,49 49,91 98,744 195,1488 292,2231 12,53 45,80 109,92 366,72 1277,358 1600,744 -178,-150 -399,-253 -633,-346 -323,-129 -684,-220 -1089,-270 -89,-13 -132,-49 -142,-122 z"
   id="path29" />
   <path
   class="fil2"
   d="m 2037,3655 169,105 c 29,20 46,48 49,91 97,743 195,1487 292,2231 12,53 44,80 108,92 367,71 1238,354 1561,757 -308,-360 -1142,-652 -1563,-743 -87,-19 -129,-36 -140,-108 L 2223,3852 c -3,-32 -25,-67 -47,-81 l -135,-84 z"
   id="path30" />
   <path
   class="fil3"
   d="m 2074,3637 169,105 c 29,21 46,48 49,91 97,744 196,1487 294,2231 11,53 43,80 107,92 366,71 1199,377 1523,775 -105,-124 -267,-243 -451,-346 -358,-202 -799,-352 -1078,-412 -85,-19 -125,-38 -135,-111 L 2260,3835 c -3,-33 -25,-67 -47,-82 l -135,-84 z"
   id="path31" />
   <path
   class="fil4"
   d="m 2110,3617 169,106 c 29,21 46,49 49,91 97,744 193,1488 290,2231 10,53 46,76 109,88 115,23 271,76 443,144 376,147 824,381 1046,654 -203,-221 -454,-370 -715,-495 -251,-122 -510,-223 -778,-282 -86,-19 -123,-37 -133,-110 L 2296,3816 c -3,-32 -25,-67 -48,-81 l -134,-84 z"
   id="path32" />
   <path
   class="fil7"
   d="m 1408,4269 c 106,-12 161,6 175,101 l 290,2040 c 13,72 62,114 155,121 860,33 1328,201 1693,404 -525,-245 -1221,-324 -1804,-244 -115,17 -186,-62 -199,-149 z"
   id="path33" />
   <path
   class="fil2"
   d="m 1432,4236 c 106,-12 167,13 180,108 l 290,2033 c 13,72 57,114 150,121 859,33 1304,234 1669,437 -525,-260 -956,-380 -1660,-412 -118,-5 -165,-46 -178,-113 L 1589,4350 c -10,-71 -63,-101 -154,-93 z"
   id="path34" />
   <path
   class="fil3"
   d="m 1464,4207 c 106,-6 167,21 180,113 l 290,2032 c 13,72 56,111 149,118 863,60 1262,263 1638,465 -525,-260 -936,-412 -1641,-444 -117,-5 -153,-50 -166,-117 L 1621,4325 c -17,-73 -64,-105 -156,-101 z"
   id="path35" />
   <path
   class="fil4"
   d="m 1491,4180 c 126,-5 167,27 180,116 l 290,2032 c 13,72 52,108 147,115 859,66 1237,290 1613,492 -436,-216 -774,-368 -1280,-437 -103,-14 -221,-28 -334,-36 -113,-8 -150,-44 -163,-112 L 1652,4302 c -15,-65 -50,-102 -161,-106 z"
   id="path36" />
   <path
   class="fil7"
   d="m 6436,3669 -169,104 c -29,21 -46,49 -49,91 -98,744 -195,1488 -292,2231 -12,53 -45,80 -109,92 -366,72 -1277,358 -1601,744 179,-150 400,-253 634,-346 323,-129 684,-220 1089,-270 89,-13 132,-49 142,-122 z"
   id="path37" />
   <path
   class="fil2"
   d="m 6396,3655 -169,105 c -29,20 -46,48 -49,91 -97,743 -195,1487 -292,2231 -12,53 -45,80 -108,92 -367,71 -1238,354 -1562,757 309,-360 1143,-652 1564,-743 87,-19 129,-36 140,-108 l 290,-2228 c 3,-32 25,-67 47,-81 l 135,-84 z"
   id="path38" />
   <path
   class="fil3"
   d="m 6359,3637 -169,105 c -29,21 -46,48 -49,91 -98,744 -196,1487 -294,2231 -11,53 -43,80 -107,92 -366,71 -1199,377 -1524,775 106,-124 268,-243 452,-346 358,-202 799,-352 1078,-412 85,-19 125,-38 135,-111 l 291,-2227 c 4,-33 26,-67 48,-82 l 135,-84 z"
   id="path39" />
   <path
   class="fil4"
   d="m 6323,3617 -169,106 c -29,21 -46,49 -49,91 -97,744 -193,1488 -290,2231 -10,53 -46,76 -109,88 -115,23 -271,76 -443,144 -376,147 -824,381 -1047,654 204,-221 455,-370 715,-495 252,-122 511,-223 779,-282 86,-19 123,-37 133,-110 l 294,-2228 c 3,-32 25,-67 48,-81 l 134,-84 z"
   id="path40" />
   <path
   class="fil7"
   d="m 7025,4269 c -106,-12 -161,6 -175,101 l -290,2040 c -13,72 -62,114 -155,121 -860,33 -1328,201 -1693,404 525,-245 1221,-324 1804,-244 115,17 186,-62 199,-149 z"
   id="path41" />
   <path
   class="fil2"
   d="m 7001,4236 c -106,-12 -167,13 -180,108 l -290,2033 c -13,72 -57,114 -150,121 -859,33 -1304,234 -1669,437 525,-260 956,-380 1660,-412 118,-5 165,-46 178,-113 l 294,-2060 c 10,-71 63,-101 154,-93 z"
   id="path42" />
   <path
   class="fil3"
   d="m 6969,4207 c -107,-6 -167,21 -180,113 l -290,2032 c -14,72 -56,111 -149,118 -863,60 -1262,263 -1638,465 525,-260 936,-412 1641,-444 117,-5 153,-50 166,-117 l 293,-2049 c 17,-73 64,-105 156,-101 z"
   id="path43" />
   <path
   class="fil4"
   d="m 6942,4180 c -126,-5 -167,27 -180,116 l -290,2032 c -13,72 -52,108 -148,115 -858,66 -1236,290 -1612,492 436,-216 774,-368 1279,-437 104,-14 222,-28 335,-36 113,-8 150,-44 163,-112 l 292,-2048 c 15,-65 50,-102 161,-106 z"
   id="path44" />
   
   
  </g>
 </g>
</svg>
